<svg xmlns="http://www.w3.org/2000/svg" width="102" height="123" fill="none"><path fill="url(#a)" d="M102 91c0 4-4 6-7 4L47 71c-2-1-3-3-3-5V5c0-4 4-6 7-4l48 24 3 4z"/><path fill="url(#b)" d="M0 90c0 4 4 7 7 5l43-24 3-4V6c0-4-4-7-7-5L3 25l-3 4z"/><path fill="#7E4B01" d="M7 55c-3-2-3-7 0-9l40-24h5l42 24c4 2 4 7 0 9L53 78h-4z"/><path fill="url(#c)" d="M46 116c0 3 4 6 7 4l46-24c2-1 3-3 3-5V29c0-3-4-6-7-4L49 49c-2 1-3 3-3 5z"/><path fill="url(#d)" d="M56 116c0 3-4 6-7 4L3 96c-2-1-3-3-3-5V29c0-3 4-6 7-4l46 24c2 1 3 3 3 5z"/><path fill="#000" fill-opacity=".5" d="M72 97H29V64h43v8H38v5h33v7H38v5h34z"/><defs><linearGradient id="a" x1="73" x2="73" y1="-3" y2="99" gradientUnits="userSpaceOnUse"><stop stop-color="#F7FF00"/><stop offset="1" stop-color="#FF6A00"/></linearGradient><linearGradient id="b" x1="26.5" x2="26.5" y1="-3" y2="99" gradientUnits="userSpaceOnUse"><stop stop-color="#F7FF00"/><stop offset="1" stop-color="#FF6A00"/></linearGradient><linearGradient id="c" x1="74" x2="74" y1="21" y2="124" gradientUnits="userSpaceOnUse"><stop stop-color="#F7FF00"/><stop offset="1" stop-color="#FF6A00"/></linearGradient><linearGradient id="d" x1="28" x2="28" y1="21" y2="124" gradientUnits="userSpaceOnUse"><stop stop-color="#F7FF00"/><stop offset="1" stop-color="#FF6A00"/></linearGradient></defs></svg>